name Walk1.mot
datacolumns 19
datarows 15
range 3.99500000 4.06500000
endheader

                time	   L_ground_force_vx	   L_ground_force_vy	   L_ground_force_vz	   L_ground_force_px	   L_ground_force_py	   L_ground_force_pz	   R_ground_force_vx	   R_ground_force_vy	   R_ground_force_vz	   R_ground_force_px	   R_ground_force_py	   R_ground_force_pz	   L_ground_torque_x	   L_ground_torque_y	   L_ground_torque_z	   R_ground_torque_x	   R_ground_torque_y	   R_ground_torque_z	
          3.99500000	          0.04626627	          0.11668016	         -0.00172462	         -0.00019454	          0.00000000	         -0.00007361	        -15.55919569	        664.10008129	        -36.68509700	          0.32730257	          0.00000000	          0.09602817	          0.00000000	          0.00071363	          0.00000000	          0.00000000	          6.03158357	          0.00000000	
          4.00000000	          0.03471292	          0.08109578	         -0.00186148	         -0.00016514	          0.00000000	         -0.00006324	        -13.84483711	        655.18496811	        -36.27410099	          0.32811897	          0.00000000	          0.09616685	          0.00000000	          0.00054674	          0.00000000	          0.00000000	          5.64756324	          0.00000000	
          4.00500000	          0.02455860	          0.05186251	         -0.00180202	         -0.00013323	          0.00000000	         -0.00005158	        -12.25443898	        646.62363918	        -35.96338907	          0.32902245	          0.00000000	          0.09634431	          0.00000000	          0.00039648	          0.00000000	          0.00000000	          5.29396256	          0.00000000	
          4.01000000	          0.01610454	          0.02901408	         -0.00162138	         -0.00010223	          0.00000000	         -0.00004003	        -10.76915255	        638.49028068	        -35.71608491	          0.32999481	          0.00000000	          0.09655416	          0.00000000	          0.00026877	          0.00000000	          0.00000000	          4.96634598	          0.00000000	
          4.01500000	          0.00940945	          0.01206717	         -0.00137730	         -0.00007426	          0.00000000	         -0.00002945	         -9.36921526	        630.84556042	        -35.49809912	          0.33101949	          0.00000000	          0.09678933	          0.00000000	          0.00016561	          0.00000000	          0.00000000	          4.65962995	          0.00000000	
          4.02000000	          0.00437184	          0.00024507	         -0.00111185	         -0.00005045	          0.00000000	         -0.00002034	         -8.03567070	        623.73296435	        -35.28156294	          0.33208225	          0.00000000	          0.09704187	          0.00000000	          0.00008636	          0.00000000	          0.00000000	          4.36862089	          0.00000000	
          4.02500000	          0.00079556	         -0.00735559	         -0.00085369	         -0.00003120	          0.00000000	         -0.00001289	         -6.75113611	        617.17996202	        -35.04752548	          0.33317101	          0.00000000	          0.09730473	          0.00000000	          0.00002871	          0.00000000	          0.00000000	          4.08884516	          0.00000000	
          4.03000000	         -0.00156076	         -0.01164801	         -0.00062062	         -0.00001638	          0.00000000	         -0.00000709	         -5.50090758	        611.20208619	        -34.78629999	          0.33427574	          0.00000000	          0.09757381	          0.00000000	         -0.00001053	          0.00000000	          0.00000000	          3.81689300	          0.00000000	
          4.03500000	         -0.00294839	         -0.01347944	         -0.00042207	         -0.00000558	          0.00000000	         -0.00000281	         -4.27314825	        605.80510940	        -34.49782095	          0.33538958	          0.00000000	          0.09784713	          0.00000000	         -0.00003487	          0.00000000	          0.00000000	          3.55020419	          0.00000000	
          4.04000000	         -0.00360506	         -0.01358784	         -0.00026137	          0.00000178	          0.00000000	          0.00000015	         -3.05868930	        600.98484495	        -34.18998505	          0.33650854	          0.00000000	          0.09812470	          0.00000000	         -0.00004771	          0.00000000	          0.00000000	          3.28683988	          0.00000000	
          4.04500000	         -0.00374106	         -0.01258272	         -0.00013764	          0.00000637	          0.00000000	          0.00000204	         -1.85050684	        596.72915579	        -33.87625307	          0.33763070	          0.00000000	          0.09840808	          0.00000000	         -0.00005218	          0.00000000	          0.00000000	          3.02543384	          0.00000000	
          4.05000000	         -0.00353240	         -0.01094302	         -0.00004741	          0.00000880	          0.00000000	          0.00000309	         -0.64345108	        593.02334755	        -33.57346232	          0.33875525	          0.00000000	          0.09869918	          0.00000000	         -0.00005091	          0.00000000	          0.00000000	          2.76513891	          0.00000000	
          4.05500000	         -0.00311922	         -0.00902604	          0.00001420	          0.00000967	          0.00000000	          0.00000352	          0.56635490	        589.85815653	        -33.29992108	          0.33988350	          0.00000000	          0.09899997	          0.00000000	         -0.00004608	          0.00000000	          0.00000000	          2.50540601	          0.00000000	
          4.06000000	         -0.00260756	         -0.00708288	          0.00005259	          0.00000946	          0.00000000	          0.00000352	          1.78170754	        587.23288228	        -33.07340391	          0.34101966	          0.00000000	          0.09931387	          0.00000000	         -0.00003933	          0.00000000	          0.00000000	          2.24595505	          0.00000000	
          4.06500000	         -0.00207322	         -0.00527659	          0.00007305	          0.00000857	          0.00000000	          0.00000324	          3.00366132	        585.15446620	        -32.90861009	          0.34216848	          0.00000000	          0.09964518	          0.00000000	         -0.00003189	          0.00000000	          0.00000000	          1.98700801	          0.00000000	
